<svg xmlns="http://www.w3.org/2000/svg" viewBox="0 0 130.17 174.54"><defs><style>.cls-1{fill:#ffc108;}.cls-2{fill:#250920;}</style></defs><title>Asset 1</title><g id="Layer_2" data-name="Layer 2"><g id="Layer_1-2" data-name="Layer 1"><path class="cls-1" d="M79.07,5.79a.91.91,0,0,0-1.29-.07L70.33,12.5h0V.94a.93.93,0,0,0-.9-.94.91.91,0,0,0-.92.91V12.49h0L61.65,6.18h0V.94A.93.93,0,0,0,60.75,0a.9.9,0,0,0-.92.91v4.9h0a.79.79,0,0,0-.14.23l0,0-8.52,7.81a.94.94,0,0,0-.1,1.3.92.92,0,0,0,1.3.07l7.48-6.86h0v6.71h0l-8.06,7.4a1.66,1.66,0,0,0,0,2.44l7.5,7a2.32,2.32,0,0,0,3.17,0l6.07-5.67h0v6.26a.94.94,0,0,0,.89,1,.93.93,0,0,0,.93-.92V22.88h0V15h0a.94.94,0,0,0,.12-.09L79,7.09A.94.94,0,0,0,79.07,5.79Zm-19.24,24h0l-6.7-6.14,6.71-6.31Zm8.68-6.09L61.65,30h0V17.38h0l6.86,6.28Zm0-2.53h0l-6.85-6.29h0V8.65h0l6.82,6.24,0,0Z"/><path class="cls-2" d="M86.81,55.11a2.48,2.48,0,0,0-3.55-.2L67.39,69.39V39.93l0-.09a.48.48,0,0,0-.05-.18l0-.28-.07-.17a2.54,2.54,0,0,0-.52-.82,2.28,2.28,0,0,0-.5-.39l-.3-.17a1.27,1.27,0,0,0-.42-.13,2.41,2.41,0,0,0-.56-.09h-.07l-.44.07a2.3,2.3,0,0,0-.52.15l-.31.18a2.21,2.21,0,0,0-.48.38,2.49,2.49,0,0,0-.52.81l-.09.28,0,.14-.05.22,0,29.51L46.86,54.92a2.48,2.48,0,0,0-3.56.19,2.53,2.53,0,0,0,.2,3.52L62.39,76.21v27.45a2.46,2.46,0,0,0,2,2.44l.19.07h.57l.11,0,.07,0a2.48,2.48,0,0,0,2-2.44V76.21L86.6,58.64A2.53,2.53,0,0,0,86.81,55.11Z"/><path class="cls-1" d="M37.72,47a.91.91,0,0,0-.94.9l-.19,10.18h0l-8.46-8a.94.94,0,0,0-1.31,0,.92.92,0,0,0,0,1.31l8.48,8h0L26,60.09h0l-3.84-3.63a1,1,0,0,0-1.31,0,.93.93,0,0,0,0,1.31l3.59,3.39h0a1.11,1.11,0,0,0,.07.26v0l-.19,11.68a.94.94,0,0,0,.89,1,.91.91,0,0,0,.94-.9L26.31,63h0l4.91,4.64h0l-.15,11.06a1.65,1.65,0,0,0,1.78,1.68l10.27-.71a2.36,2.36,0,0,0,2.19-2.35l0-8.39h0L50,73.22a.94.94,0,0,0,1.31,0,.92.92,0,0,0,0-1.31l-7-6.65h0l-5.78-5.47h0a.76.76,0,0,0,0-.15L38.61,48A.94.94,0,0,0,37.72,47ZM42,77.79h0l-9.13.69,0-9.31Zm1.55-10.62-.15,9.4h0l-9.25-8.74h0l9.35-.71Zm-1.85-1.74h0l-9.34.7h0L27.77,61.8h0l9.28-.7h.06Z"/><path class="cls-1" d="M46.84,18.71a.91.91,0,0,0-1,.9L45.7,29.78h0l-8.46-8A.92.92,0,1,0,36,23.11l8.48,8h0l-9.37.69h0l-3.83-3.62a.93.93,0,0,0-1.31,0,.91.91,0,0,0,0,1.31l3.58,3.39h0a1.12,1.12,0,0,0,.08.26v0l-.18,11.68a.94.94,0,0,0,.88,1,.92.92,0,0,0,.95-.9l.16-10.26h0l4.91,4.64h0l-.16,11.06A1.66,1.66,0,0,0,42,52.06l10.27-.72A2.36,2.36,0,0,0,54.43,49l0-8.39h0l4.58,4.33a.94.94,0,0,0,1.31,0,.91.91,0,0,0,0-1.31L53.3,37h0l-5.78-5.46h0c0-.05,0-.1,0-.16l.18-11.68A.93.93,0,0,0,46.84,18.71Zm4.28,30.8h0L42,50.21l0-9.31ZM52.67,38.9l-.15,9.4h0l-9.24-8.74h0l9.34-.71Zm-1.85-1.75h0l-9.34.69h0l-4.58-4.33h0l9.28-.71h.06Z"/><path class="cls-1" d="M17.17,21.18a.92.92,0,0,0-1,.9L16,32.25h0l-8.46-8a.94.94,0,0,0-1.3,0,.92.92,0,0,0,0,1.31l8.48,8h0l-9.37.68h0L1.57,30.66a.93.93,0,0,0-1.31,0,.91.91,0,0,0,0,1.3l3.59,3.39h0a.77.77,0,0,0,.07.26v0L3.76,47.34a.94.94,0,0,0,.88,1,.92.92,0,0,0,1-.91l.16-10.25h0l4.91,4.64h0l-.16,11.05a1.67,1.67,0,0,0,1.78,1.69l10.27-.72a2.37,2.37,0,0,0,2.2-2.34l0-8.39h0l4.59,4.33a.92.92,0,1,0,1.28-1.31l-7-6.66h0L17.85,34h0a.77.77,0,0,0,0-.15l.18-11.68A.93.93,0,0,0,17.17,21.18ZM21.46,52h0l-9.13.69,0-9.31ZM23,41.37l-.15,9.4h0L13.6,42h0l9.34-.71Zm-1.85-1.75h0l-9.34.69h0L7.21,36h0l9.29-.71h.05Z"/><path class="cls-1" d="M91.5,48l.19,11.68a.77.77,0,0,0,0,.15h0l-5.78,5.47h0l-7,6.65a.92.92,0,1,0,1.28,1.32l4.59-4.34h0l0,8.39A2.37,2.37,0,0,0,87,79.62l10.28.71a1.66,1.66,0,0,0,1.78-1.68l-.16-11.06h0L103.8,63h0L104,73.21a.91.91,0,0,0,.94.9.93.93,0,0,0,.89-1l-.19-11.68v0a.77.77,0,0,0,.07-.26h0l3.59-3.39a.92.92,0,0,0,0-1.31,1,1,0,0,0-1.31,0l-3.83,3.63h0l-9.37-.69h0l8.47-8a.91.91,0,0,0,0-1.31.94.94,0,0,0-1.31,0l-8.45,8h0l-.2-10.18a.91.91,0,0,0-.94-.9A1,1,0,0,0,91.5,48Zm5.72,21.22,0,9.31-9.14-.69h0Zm-10.6-2,9.34.71h0l-9.25,8.74h0l-.15-9.4Zm6.39-6h0l9.29.7h0l-4.58,4.32h0l-9.34-.7h0Z"/><path class="cls-1" d="M82.39,19.67l.19,11.68a.78.78,0,0,0,0,.16h0L76.81,37h0l-7,6.66a.92.92,0,0,0,0,1.31.94.94,0,0,0,1.31,0l4.59-4.33h0l0,8.39a2.34,2.34,0,0,0,2.19,2.34l10.27.72a1.67,1.67,0,0,0,1.79-1.68l-.16-11.06h0l4.91-4.64h0l.17,10.26a.91.91,0,0,0,.94.9.94.94,0,0,0,.89-1L96.5,33.19v0a1.11,1.11,0,0,0,.07-.26h0l3.59-3.39a.92.92,0,1,0-1.28-1.32l-3.83,3.62h0l-9.37-.69h0l8.48-8a.92.92,0,0,0,0-1.31.94.94,0,0,0-1.31,0l-8.45,8h0l-.19-10.17a.91.91,0,0,0-.94-.9A.93.93,0,0,0,82.39,19.67ZM88.11,40.9v9.31L79,49.52h0Zm-10.61-2,9.35.71h0L77.6,48.3h0l-.16-9.4Zm6.39-6H84l9.28.71h0l-4.58,4.33h0l-9.33-.69h0Z"/><path class="cls-1" d="M112.06,22.14l.19,11.68a.76.76,0,0,0,0,.15h0l-5.78,5.46h0l-7,6.66a.92.92,0,0,0,0,1.31.94.94,0,0,0,1.31,0l4.58-4.33h0l0,8.39a2.35,2.35,0,0,0,2.19,2.34l10.27.72a1.66,1.66,0,0,0,1.78-1.69l-.15-11.05h0l4.91-4.64h0l.16,10.25a.93.93,0,0,0,1,.91,1,1,0,0,0,.89-1l-.19-11.68v0a1.11,1.11,0,0,0,.07-.26h0L129.83,32a.92.92,0,1,0-1.28-1.31l-3.84,3.62h0l-9.37-.68h0l8.48-8a.92.92,0,0,0,0-1.31,1,1,0,0,0-1.31,0l-8.46,8h0l-.19-10.17a.91.91,0,0,0-.94-.9A.93.93,0,0,0,112.06,22.14Zm5.71,21.23,0,9.31L108.66,52h0Zm-10.6-2.06,9.34.71h0l-9.25,8.74h0l-.15-9.4Zm6.39-6h.06l9.28.71h0l-4.57,4.33h0L109,39.63h0Z"/><path class="cls-2" d="M16.52,125.92a1.4,1.4,0,0,1,.76.53,1.35,1.35,0,0,1,.3.87v14.81a1.4,1.4,0,0,1-.42,1,1.46,1.46,0,0,1-2.07,0,1.4,1.4,0,0,1-.42-1v-9.58l-4.6,7.59h0v0a.28.28,0,0,0,0,.08l0,0s0,.06-.06.06l-.05.05-.05,0-.07.06,0,0-.09,0h0v0h0l-.08,0,0,0-.07,0a1.22,1.22,0,0,1-.59.11H8.69l-.32-.06h-.1l-.08,0,0,0-.1,0h0v0H8l-.09-.06s0,0,0,0l-.07-.06a.23.23,0,0,1,0,0l0-.05-.06-.06a.09.09,0,0,1,0,0l-.06-.08v0h0a0,0,0,0,0,0,0L3,132.55v9.58a1.37,1.37,0,0,1-.43,1,1.44,1.44,0,0,1-1,.43,1.4,1.4,0,0,1-1-.43,1.37,1.37,0,0,1-.43-1V127.32a1.35,1.35,0,0,1,.3-.87,1.35,1.35,0,0,1,.77-.53A1.41,1.41,0,0,1,2,126a1.44,1.44,0,0,1,.71.6l6.07,10,6.06-10a1.37,1.37,0,0,1,.7-.6l.46-.18Z"/><path class="cls-2" d="M23.16,143.59a1.4,1.4,0,0,1-1-.43,1.37,1.37,0,0,1-.43-1v-14.7a1.45,1.45,0,0,1,2.9,0v14.7a1.37,1.37,0,0,1-.43,1A1.4,1.4,0,0,1,23.16,143.59Z"/><path class="cls-2" d="M45,125.92a1.4,1.4,0,0,1,.76.53,1.35,1.35,0,0,1,.3.87v14.81a1.4,1.4,0,0,1-.42,1,1.46,1.46,0,0,1-2.07,0,1.4,1.4,0,0,1-.42-1v-9.58l-4.6,7.59h0v0a.28.28,0,0,0,0,.08l0,0s-.05.06-.06.06l0,.05-.05,0-.07.06,0,0-.09,0h0v0h0l-.09,0,0,0-.07,0a1.22,1.22,0,0,1-.59.11h-.08l-.32-.06h-.1l-.08,0s0,0,0,0l-.1,0h0v0h0l-.09-.06s0,0,0,0l-.07-.06,0,0-.05-.05-.06-.06a.09.09,0,0,1,0,0l-.06-.08v0h0a0,0,0,0,0,0,0l-4.59-7.59v9.58a1.37,1.37,0,0,1-.43,1,1.44,1.44,0,0,1-1,.43,1.47,1.47,0,0,1-1.46-1.46V127.32a1.48,1.48,0,0,1,1.07-1.4,1.41,1.41,0,0,1,.93,0,1.44,1.44,0,0,1,.71.6l6.07,10,6.06-10a1.37,1.37,0,0,1,.7-.6l.46-.18Z"/><path class="cls-2" d="M62.13,131a4.75,4.75,0,0,1-1,2.95,5.32,5.32,0,0,1-2.57,1.86l2.8,5.66a1.4,1.4,0,0,1,.06,1.1,1.35,1.35,0,0,1-.73.84,1.4,1.4,0,0,1-.64.15,1.33,1.33,0,0,1-1.29-.82l-3.27-6.61H53V142a1.45,1.45,0,0,1-2.47,1,1.42,1.42,0,0,1-.42-1V127.35a1.45,1.45,0,0,1,1.44-1.46h5.1a5.44,5.44,0,0,1,3.88,1.51A4.77,4.77,0,0,1,62.13,131Zm-5.4,2.23a2.72,2.72,0,0,0,1.77-.68,2,2,0,0,0,.73-1.55,2,2,0,0,0-.76-1.59,2.73,2.73,0,0,0-1.84-.65H53v4.47Z"/><path class="cls-2" d="M72.71,125.88a5.48,5.48,0,0,1,3.91,1.52,4.92,4.92,0,0,1,.06,7.24,5.51,5.51,0,0,1-3.77,1.57H69v5.92a1.4,1.4,0,0,1-.42,1,1.44,1.44,0,0,1-1,.43,1.4,1.4,0,0,1-1-.43,1.37,1.37,0,0,1-.43-1v-14.8a1.47,1.47,0,0,1,1.45-1.45Zm.09,7.42a2.68,2.68,0,0,0,1.78-.68,2,2,0,0,0,.74-1.58,2.05,2.05,0,0,0-.76-1.59,2.74,2.74,0,0,0-1.85-.66H69v4.51Z"/><path class="cls-2" d="M89.83,143.59a8.86,8.86,0,1,1,6.26-2.6A8.52,8.52,0,0,1,89.83,143.59Zm0-14.79a5.94,5.94,0,1,0,4.2,1.74A5.7,5.7,0,0,0,89.83,128.8Z"/><path class="cls-2" d="M114.06,138.33a5.23,5.23,0,0,1-1.77,3.73,5.69,5.69,0,0,1-4,1.53,7.48,7.48,0,0,1-3.6-.86,4.67,4.67,0,0,1-2.42-3,1.46,1.46,0,0,1,.14-1.1,1.39,1.39,0,0,1,.89-.66,1.41,1.41,0,0,1,1.76,1,2.07,2.07,0,0,0,1.21,1.3,4.82,4.82,0,0,0,2,.4,2.9,2.9,0,0,0,2-.73,2.38,2.38,0,0,0,.88-1.77,1.52,1.52,0,0,0-.45-1.15,3.47,3.47,0,0,0-2.57-.83h-.06a6.27,6.27,0,0,1-4.62-1.74,4.31,4.31,0,0,1-1.23-3.27,5.18,5.18,0,0,1,1.76-3.74,5.69,5.69,0,0,1,4-1.53,7.48,7.48,0,0,1,3.6.86,4.66,4.66,0,0,1,2.43,3,1.39,1.39,0,0,1-.16,1.09,1.36,1.36,0,0,1-.88.67,1.44,1.44,0,0,1-1.76-1,2,2,0,0,0-1.22-1.3,4.71,4.71,0,0,0-2-.41,3,3,0,0,0-2,.73,2.49,2.49,0,0,0-.88,1.78,1.58,1.58,0,0,0,.46,1.15,3.48,3.48,0,0,0,2.56.83h.06a6.17,6.17,0,0,1,4.62,1.75A4.33,4.33,0,0,1,114.06,138.33Z"/><path class="cls-2" d="M122.09,128.8h-3.66a1.46,1.46,0,0,1-1-2.48,1.42,1.42,0,0,1,1-.43h10.24a1.43,1.43,0,0,1,1.44,1.46,1.42,1.42,0,0,1-.41,1,1.4,1.4,0,0,1-1,.43H125v13.33a1.4,1.4,0,0,1-.43,1,1.46,1.46,0,0,1-2,0,1.44,1.44,0,0,1-.43-1Z"/><path class="cls-2" d="M8.94,153.34h1.23a.79.79,0,0,0,.51-.18.55.55,0,0,0,.22-.45V151.1a.6.6,0,0,0-.21-.48.75.75,0,0,0-.52-.18H8.94a.77.77,0,0,0-.53.18.63.63,0,0,0-.2.48v1.61a.59.59,0,0,0,.2.45A.77.77,0,0,0,8.94,153.34Z"/><path class="cls-2" d="M14.13,153.34h1.24a.79.79,0,0,0,.51-.18.58.58,0,0,0,.22-.45V151.1a.61.61,0,0,0-.22-.48.79.79,0,0,0-.51-.18H14.13a.84.84,0,0,0-.52.18.57.57,0,0,0-.24.48v1.61a.54.54,0,0,0,.24.45A.84.84,0,0,0,14.13,153.34Z"/><path class="cls-2" d="M48.45,155.33a.55.55,0,0,0-.16-.4.58.58,0,0,0-.44-.16H46.36a.53.53,0,0,0-.41.16.55.55,0,0,0-.16.4c0,1.56.06,3,.06,4.46V164a3.17,3.17,0,0,1-.05.63.49.49,0,0,1-.2.31.88.88,0,0,1-.43.12H43.41l-.85,0a5.37,5.37,0,0,1-.84-.1,2.82,2.82,0,0,1-.69-.21.72.72,0,0,1-.38-.37v-7.9a.59.59,0,0,0-.15-.41.61.61,0,0,0-.42-.16H38.63a.63.63,0,0,0-.43.16.54.54,0,0,0-.18.41V164a.74.74,0,0,1-.22.57,1.44,1.44,0,0,1-.52.31,3.15,3.15,0,0,1-.67.15,5.25,5.25,0,0,1-.65,0h-.69l-.67,0a4.54,4.54,0,0,1-.74-.1,3.1,3.1,0,0,1-.67-.21.68.68,0,0,1-.39-.37v-6.89a.65.65,0,0,0-.16-.42.53.53,0,0,0-.41-.17H30.77a.5.5,0,0,0-.41.17.6.6,0,0,0-.16.42v6.44a.79.79,0,0,1-.24.61,1.47,1.47,0,0,1-.57.33,2.71,2.71,0,0,1-.71.13c-.26,0-.49,0-.7,0H26.46c-.17,0-.38,0-.63,0a4.52,4.52,0,0,1-.75-.1,3.49,3.49,0,0,1-.67-.21.68.68,0,0,1-.39-.37v-8.2a.54.54,0,0,0-.16-.4.55.55,0,0,0-.41-.17H22a.61.61,0,0,0-.43.17.51.51,0,0,0-.17.4v7.81a.79.79,0,0,1-.24.61,1.47,1.47,0,0,1-.57.33,2.78,2.78,0,0,1-.73.13c-.26,0-.49,0-.68,0H10.2a14.92,14.92,0,0,1-4-.44,5.38,5.38,0,0,1-2.31-1.23,3.9,3.9,0,0,1-1.06-1.91A10.92,10.92,0,0,1,2.57,159c0-.34,0-.66,0-1s0-.71.09-1.17-.11-.59-.47-.59H.89a.6.6,0,0,0-.64.56,15.2,15.2,0,0,0-.2,1.54c0,.45,0,.88,0,1.3A11.6,11.6,0,0,0,.43,163,5.31,5.31,0,0,0,2,165.46,7.59,7.59,0,0,0,5.05,167a19.12,19.12,0,0,0,5,.55h8a21.53,21.53,0,0,0,2.58-.16,4.19,4.19,0,0,0,2.08-.82,2.55,2.55,0,0,0,.85.5,9.05,9.05,0,0,0,1.05.3,6.6,6.6,0,0,0,1.06.15l1,0h1.11a11.66,11.66,0,0,0,2.06-.2,4,4,0,0,0,1.83-.78,3.84,3.84,0,0,0,1.75.78,10.49,10.49,0,0,0,2,.2h.54a8.66,8.66,0,0,0,2.08-.24,4.31,4.31,0,0,0,1.6-.74,4.56,4.56,0,0,0,2,.77,14.6,14.6,0,0,0,2.28.18h.51c.68,0,1.31,0,1.92-.08a6.74,6.74,0,0,0,1.41-.22,1.08,1.08,0,0,0,.52-.36,1.43,1.43,0,0,0,.21-.53q0-.36.06-.81c0-.3,0-.6,0-.91s0-.61,0-.91v-5c0-.49,0-1,0-1.55S48.47,156,48.45,155.33Z"/><path class="cls-2" d="M71.33,170.36H70a.78.78,0,0,0-.51.18.58.58,0,0,0-.22.48v1.61a.55.55,0,0,0,.22.43.74.74,0,0,0,.51.19h1.36a.75.75,0,0,0,.51-.19.59.59,0,0,0,.22-.43V171a.61.61,0,0,0-.22-.48A.79.79,0,0,0,71.33,170.36Z"/><path class="cls-2" d="M74.37,156.08a.54.54,0,0,0-.16-.4.59.59,0,0,0-.44-.17H72.25a.51.51,0,0,0-.4.17.61.61,0,0,0-.14.4c0,.77,0,1.49.05,2.15s0,1.29,0,1.9V164c0,.52-.08.83-.25.93a2.81,2.81,0,0,1-1.17.15H65.56v-10.2a.54.54,0,0,0-.09-.35,1.09,1.09,0,0,0-.38-.19,10.69,10.69,0,0,0-2-.34c-.79-.07-1.61-.11-2.45-.11A7.93,7.93,0,0,0,55,155.66a6.4,6.4,0,0,0-2,5v.75A6,6,0,0,0,54.79,166a7.09,7.09,0,0,0,4.91,1.55h3.17v1.19a3.8,3.8,0,0,1-.41,1.75,2.69,2.69,0,0,1-1.1,1,5.06,5.06,0,0,1-1.71.51,17,17,0,0,1-2.26.13H56.05c-.54,0-1,0-1.36,0s-.51.14-.51.42v1.31a.46.46,0,0,0,.1.31.75.75,0,0,0,.41.17l.57.06.91,0,1,0,.81,0a15,15,0,0,0,3-.29,6.36,6.36,0,0,0,2.36-.95,4.68,4.68,0,0,0,1.56-1.79,6.68,6.68,0,0,0,.63-2.79v-1.13h4l1.14,0c.41,0,.8,0,1.18-.06l1-.08a3.71,3.71,0,0,0,.7-.14,1.08,1.08,0,0,0,.52-.36,1.51,1.51,0,0,0,.21-.5,17.11,17.11,0,0,0,.11-1.91c0-.82,0-1.7,0-2.66v-2.78c0-.41,0-.84,0-1.3S74.39,156.76,74.37,156.08Zm-11.47,9H59.76a3.44,3.44,0,0,1-4-4v-.6A4,4,0,0,1,57,157.3a4.76,4.76,0,0,1,3.31-1.1c.53,0,1,0,1.39,0l1.24.09Z"/><path class="cls-2" d="M107.36,170.36h-1.24a.75.75,0,0,0-.52.18.6.6,0,0,0-.21.48v1.61a.57.57,0,0,0,.21.43.71.71,0,0,0,.52.19h1.24a.73.73,0,0,0,.5-.19.55.55,0,0,0,.22-.43V171a.63.63,0,0,0-.2-.48A.77.77,0,0,0,107.36,170.36Z"/><path class="cls-2" d="M112.55,170.36h-1.23a.87.87,0,0,0-.53.18.56.56,0,0,0-.23.48v1.61a.54.54,0,0,0,.23.43.82.82,0,0,0,.53.19h1.23a.75.75,0,0,0,.51-.19.55.55,0,0,0,.22-.43V171a.58.58,0,0,0-.22-.48A.79.79,0,0,0,112.55,170.36Z"/><path class="cls-2" d="M128.55,155.51a6.5,6.5,0,0,0-4.78-1.61,6.75,6.75,0,0,0-4.87,1.64,6.27,6.27,0,0,0-1.69,4.71v2.87a3.13,3.13,0,0,1-.1.86.93.93,0,0,1-.36.55,2.54,2.54,0,0,1-1.31.46c-.24,0-.43,0-.58,0H113.6c-.19,0-.41,0-.67,0a4.54,4.54,0,0,1-.74-.1,3.1,3.1,0,0,1-.67-.21.68.68,0,0,1-.39-.37v-8.2a.52.52,0,0,0-.18-.4.6.6,0,0,0-.43-.17h-1.45a.6.6,0,0,0-.43.17.52.52,0,0,0-.18.4v7.81a.78.78,0,0,1-.23.61,1.48,1.48,0,0,1-.59.33,2.94,2.94,0,0,1-.73.13c-.25,0-.49,0-.7,0h-1.64a4.56,4.56,0,0,1-.64-.07,2.8,2.8,0,0,1-.74-.2,2.13,2.13,0,0,1-.65-.42,1,1,0,0,1-.32-.69,5.08,5.08,0,0,0,.08-.74c0-.28,0-.54,0-.78v-1.67a6.42,6.42,0,0,0-1.62-4.74,6.52,6.52,0,0,0-4.78-1.61,6.73,6.73,0,0,0-4.87,1.64,6.27,6.27,0,0,0-1.69,4.71v2.86a3.15,3.15,0,0,1-.1.87.67.67,0,0,1-.33.46,2.31,2.31,0,0,1-.62.26,4.19,4.19,0,0,1-.71.1L87,165H83.27v-8.92a.57.57,0,0,0-.15-.4.54.54,0,0,0-.39-.17H81.18a.55.55,0,0,0-.41.17.54.54,0,0,0-.16.4v13.21a5.92,5.92,0,0,1-.16,1.56,1.49,1.49,0,0,1-.57.88,2.3,2.3,0,0,1-1.07.39,13.41,13.41,0,0,1-1.72.09h-.66q-.54,0-.54.42v1.28a.41.41,0,0,0,.1.31.75.75,0,0,0,.41.17,6.74,6.74,0,0,0,.84.09l.68,0a8.65,8.65,0,0,0,3-.42,3.41,3.41,0,0,0,1.76-1.46,4.21,4.21,0,0,0,.48-1.4,12.07,12.07,0,0,0,.12-1.76v-1.91h3.52a10.84,10.84,0,0,0,2.19-.22,3.13,3.13,0,0,0,1.64-.91A4.34,4.34,0,0,0,92.7,168a9.3,9.3,0,0,0,3.15.49q3.59,0,5.07-2a3.74,3.74,0,0,0,1.6.88,7.86,7.86,0,0,0,2,.28h1.26a11.34,11.34,0,0,0,2-.2,4.33,4.33,0,0,0,1.89-.78,3.9,3.9,0,0,0,1.85.78,12.48,12.48,0,0,0,2.11.2h.7a9.36,9.36,0,0,0,2.44-.31,2.86,2.86,0,0,0,1.65-1.12,4.62,4.62,0,0,0,2.13,1.41,9.59,9.59,0,0,0,3.13.47c2.28,0,3.92-.54,4.94-1.6a6.58,6.58,0,0,0,1.52-4.7v-1.52A6.38,6.38,0,0,0,128.55,155.51ZM99.66,162a4.64,4.64,0,0,1-.86,3.06,3.7,3.7,0,0,1-3,1,4.75,4.75,0,0,1-2.47-.57,2.7,2.7,0,0,1-1.23-1.82A8.77,8.77,0,0,1,92,162v-1.37a4.77,4.77,0,0,1,.9-3.13,3.7,3.7,0,0,1,3-1.07,3.44,3.44,0,0,1,2.9,1.09,5,5,0,0,1,.84,3.11Zm27.85-.44a4.61,4.61,0,0,1-.86,3.14,3.83,3.83,0,0,1-2.94.94,5.53,5.53,0,0,1-2.44-.46,2.46,2.46,0,0,1-1.27-1.78,8.57,8.57,0,0,1-.13-1.64v-1.31a4.8,4.8,0,0,1,.9-3.14,3.69,3.69,0,0,1,3-1.09,3.45,3.45,0,0,1,2.9,1.1,5.09,5.09,0,0,1,.84,3.13Z"/><circle class="cls-1" cx="89.77" cy="134.88" r="3.84"/><path class="cls-1" d="M59.67,157.92h0c-1.68,0-2.3,1.3-2.3,2.88s.62,2.85,2.3,2.87H61.4v-5.76Z"/></g></g></svg>